<?xml version="1.0" encoding="utf-8"?>
<!-- Generator: Adobe Illustrator 16.0.0, SVG Export Plug-In . SVG Version: 6.00 Build 0)  -->
<!DOCTYPE svg PUBLIC "-//W3C//DTD SVG 1.1//EN" "http://www.w3.org/Graphics/SVG/1.1/DTD/svg11.dtd">
<svg version="1.1" id="Layer_1" xmlns="http://www.w3.org/2000/svg" xmlns:xlink="http://www.w3.org/1999/xlink" x="0px" y="0px"
	 width="36.625px" height="36.625px" viewBox="0 0 36.625 36.625" enable-background="new 0 0 36.625 36.625" xml:space="preserve">
<path fill-rule="evenodd" clip-rule="evenodd" fill="#FFFFFF" d="M2.312,18.312c0,8.84,7.16,16,16,16s16-7.16,16-16s-7.16-16-16-16
	S2.312,9.473,2.312,18.312z M3.283,18.312c0-8.3,6.73-15.03,15.03-15.03s15.03,6.73,15.03,15.03s-6.73,15.03-15.03,15.03
	S3.283,26.612,3.283,18.312z"/>
<path fill-rule="evenodd" clip-rule="evenodd" fill="#FFFFFF" d="M23.192,21.533c-0.58,0.6-1.25,1.07-1.99,1.39
	c-0.75,0.33-1.63,0.49-2.65,0.49c-0.8,0-1.53-0.11-2.19-0.34c-0.66-0.24-1.23-0.58-1.7-1.02c-0.48-0.43-0.84-0.96-1.11-1.59
	c-0.27-0.62-0.4-1.32-0.4-2.1c0-0.73,0.13-1.41,0.38-2.04c0.25-0.63,0.62-1.17,1.08-1.63c0.47-0.46,1.03-0.83,1.69-1.09
	c0.64-0.26,1.37-0.39,2.16-0.39c0.74,0,1.4,0.09,2.01,0.28c0.61,0.19,1.13,0.46,1.58,0.82c0.45,0.37,0.79,0.82,1.04,1.35
	c0.25,0.53,0.38,1.15,0.38,1.84c0,0.42-0.05,0.79-0.12,1.15c-0.08,0.35-0.19,0.66-0.32,0.93c-0.14,0.26-0.31,0.46-0.5,0.61
	c-0.2,0.15-0.42,0.22-0.66,0.22c-0.15,0-0.27-0.02-0.36-0.07c-0.09-0.05-0.16-0.12-0.22-0.19c-0.05-0.08-0.08-0.17-0.1-0.26
	c-0.01-0.1-0.01-0.19-0.01-0.29c0-0.07,0-0.16,0.01-0.29c0.01-0.11,0.03-0.23,0.06-0.36l0.06-0.36c0.02-0.11,0.04-0.2,0.06-0.29
	l0.68-3.09h-1.11l-0.21,0.81l-0.07-0.41c-0.13-0.33-0.35-0.61-0.67-0.85c-0.32-0.23-0.7-0.35-1.12-0.35c-0.53,0-1.01,0.12-1.43,0.35
	c-0.43,0.24-0.79,0.55-1.07,0.93c-0.3,0.4-0.52,0.84-0.68,1.34c-0.16,0.5-0.25,1.01-0.25,1.52c0,0.45,0.06,0.87,0.17,1.24
	c0.1,0.38,0.26,0.71,0.48,0.97c0.21,0.26,0.46,0.48,0.76,0.63s0.64,0.22,1.02,0.22c0.28,0,0.53-0.04,0.76-0.12
	c0.23-0.08,0.43-0.19,0.61-0.32c0.18-0.12,0.32-0.25,0.45-0.4c0.12-0.14,0.21-0.27,0.28-0.41h0.06c0,0.34,0.11,0.63,0.34,0.88
	s0.59,0.37,1.08,0.37c0.42,0,0.83-0.08,1.2-0.26c0.38-0.17,0.72-0.43,1.01-0.79c0.28-0.35,0.51-0.78,0.69-1.3
	c0.17-0.53,0.26-1.13,0.26-1.8c0-0.92-0.17-1.72-0.51-2.4c-0.34-0.67-0.79-1.24-1.35-1.69c-0.56-0.45-1.21-0.8-1.94-1.03
	c-0.74-0.22-1.49-0.33-2.26-0.33c-0.9,0-1.75,0.17-2.54,0.48c-0.8,0.32-1.5,0.77-2.09,1.34c-0.59,0.56-1.06,1.23-1.4,1.99
	c-0.34,0.77-0.51,1.61-0.51,2.51c0,0.92,0.13,1.76,0.42,2.53c0.28,0.78,0.7,1.45,1.26,2c0.56,0.55,1.24,0.98,2.05,1.29
	s1.71,0.46,2.7,0.46c1.09,0,2.09-0.19,3-0.59c0.92-0.39,1.71-0.95,2.39-1.67L23.192,21.533z M19.312,15.772
	c0.18,0.11,0.32,0.25,0.42,0.42c0.11,0.17,0.18,0.37,0.23,0.58c0.04,0.23,0.07,0.44,0.07,0.67c0,0.3-0.05,0.62-0.12,0.95
	c-0.08,0.34-0.2,0.67-0.36,0.97c-0.17,0.3-0.39,0.55-0.66,0.75c-0.27,0.21-0.59,0.3-0.96,0.3c-0.27,0-0.5-0.06-0.67-0.19
	c-0.17-0.12-0.3-0.28-0.4-0.47c-0.11-0.18-0.18-0.38-0.22-0.6c-0.03-0.2-0.05-0.4-0.05-0.57c0-0.34,0.05-0.68,0.14-1.04
	c0.08-0.36,0.21-0.67,0.39-0.96c0.18-0.28,0.39-0.5,0.64-0.69s0.54-0.28,0.88-0.28C18.913,15.612,19.132,15.663,19.312,15.772z"/>
</svg>
