<?xml version="1.0" encoding="utf-8"?>
<!-- Generator: Adobe Illustrator 16.0.0, SVG Export Plug-In . SVG Version: 6.00 Build 0)  -->
<!DOCTYPE svg PUBLIC "-//W3C//DTD SVG 1.1//EN" "http://www.w3.org/Graphics/SVG/1.1/DTD/svg11.dtd">
<svg version="1.1" id="Layer_1" xmlns="http://www.w3.org/2000/svg" xmlns:xlink="http://www.w3.org/1999/xlink" x="0px" y="0px"
	 width="36.625px" height="36.625px" viewBox="0 0 36.625 36.625" enable-background="new 0 0 36.625 36.625" xml:space="preserve">
<path fill="#FFFFFF" d="M2.072,18.312c0,8.84,7.16,16,16,16c8.84,0,16-7.16,16-16c0-8.84-7.16-16-16-16
	C9.232,2.312,2.072,9.473,2.072,18.312z M3.042,18.312c0-8.3,6.73-15.03,15.03-15.03c8.3,0,15.03,6.73,15.03,15.03
	c0,8.299-6.729,15.03-15.03,15.03C9.772,33.342,3.042,26.611,3.042,18.312z"/>
<path fill="#FFFFFF" d="M8.862,18.312c0,8.84,4.12,16,9.21,16c5.09,0,9.21-7.16,9.21-16c0-8.84-4.12-16-9.21-16
	C12.982,2.312,8.862,9.473,8.862,18.312z M10.392,18.312c0-8.3,2.9-15.03,7.68-15.03s7.68,6.73,7.68,15.03
	c0,8.299-2.9,15.03-7.68,15.03S10.392,26.611,10.392,18.312z"/>
<rect x="18.072" y="2.729" fill="#FFFFFF" width="0.97" height="31.104"/>
<rect x="2.552" y="18.312" fill="#FFFFFF" width="31.178" height="0.97"/>
<rect x="4.248" y="11.522" fill="#FFFFFF" width="28.13" height="0.97"/>
<rect x="4.492" y="25.104" fill="#FFFFFF" width="27.32" height="0.97"/>
</svg>
