<?xml version="1.0" encoding="utf-8"?>
<!-- Generator: Adobe Illustrator 16.0.0, SVG Export Plug-In . SVG Version: 6.00 Build 0)  -->
<!DOCTYPE svg PUBLIC "-//W3C//DTD SVG 1.1//EN" "http://www.w3.org/Graphics/SVG/1.1/DTD/svg11.dtd">
<svg version="1.1" id="Layer_1" xmlns="http://www.w3.org/2000/svg" xmlns:xlink="http://www.w3.org/1999/xlink" x="0px" y="0px"
	 width="36.625px" height="36.625px" viewBox="0 0 36.625 36.625" enable-background="new 0 0 36.625 36.625" xml:space="preserve">
<g>
	<path fill-rule="evenodd" clip-rule="evenodd" fill="#FFFFFF" d="M2.385,18.865c0.26,8.61,7.32,15.51,15.99,15.51
		c5.65,0,10.62-2.93,13.46-7.35l-0.97-0.3c-2.69,4.03-7.28,6.68-12.49,6.68c-7.97,0-14.49-6.2-15-14.05L2.385,18.865z
		 M34.235,20.465c0.09-0.68,0.14-1.38,0.14-2.09c0-8.84-7.16-16-16-16c-6.25,0-11.67,3.59-14.3,8.82l0.83,0.52
		c2.45-4.96,7.56-8.37,13.47-8.37c8.3,0,15.03,6.73,15.03,15.03c0,0.52-0.03,1.03-0.08,1.53L34.235,20.465z"/>
	<g>
		<rect x="10.615" y="11.585" fill-rule="evenodd" clip-rule="evenodd" fill="#FFFFFF" width="1.94" height="14.55"/>
		<rect x="20.315" y="13.525" fill-rule="evenodd" clip-rule="evenodd" fill="#FFFFFF" width="1.94" height="12.61"/>
		<rect x="25.165" y="16.435" fill-rule="evenodd" clip-rule="evenodd" fill="#FFFFFF" width="1.94" height="9.7"/>
		<rect x="15.465" y="17.405" fill-rule="evenodd" clip-rule="evenodd" fill="#FFFFFF" width="1.94" height="8.73"/>
	</g>
	<g>
		
			<rect x="5.757" y="9.162" transform="matrix(0.194 0.981 -0.981 0.194 16.3875 3.3253)" fill-rule="evenodd" clip-rule="evenodd" fill="#FFFFFF" width="0.826" height="4.946"/>
		
			<rect x="3.332" y="7.547" transform="matrix(-0.9811 0.1934 -0.1934 -0.9811 9.3568 19.1267)" fill-rule="evenodd" clip-rule="evenodd" fill="#FFFFFF" width="0.826" height="4.946"/>
	</g>
	<g>
		<polygon fill-rule="evenodd" clip-rule="evenodd" fill="#FFFFFF" points="32.145,25.265 32.295,26.555 26.575,28.035 
			26.225,26.855 		"/>
		<polygon fill-rule="evenodd" clip-rule="evenodd" fill="#FFFFFF" points="32.895,31.775 32.055,31.955 31.115,25.545 
			32.145,25.265 		"/>
	</g>
</g>
</svg>
