<?xml version="1.0" encoding="utf-8"?>
<!-- Generator: Adobe Illustrator 16.0.0, SVG Export Plug-In . SVG Version: 6.00 Build 0)  -->
<!DOCTYPE svg PUBLIC "-//W3C//DTD SVG 1.1//EN" "http://www.w3.org/Graphics/SVG/1.1/DTD/svg11.dtd">
<svg version="1.1" id="Layer_1" xmlns="http://www.w3.org/2000/svg" xmlns:xlink="http://www.w3.org/1999/xlink" x="0px" y="0px"
	 width="656px" height="184.5px" viewBox="-0.5 -0.5 656 184.5" enable-background="new -0.5 -0.5 656 184.5" xml:space="preserve">
<g id="Background">
	<path fill="#004185" d="M0,52.12l61.79-35.65L0,123.42V52.12z M69.63,17.46l0.98-0.99l60.81,35.65v72.29L69.63,17.46z M3.92,130.35
		H127.5L66.69,166L3.92,130.35z"/>
	<path fill="#647CA6" d="M337.4,17.74v17.74H190.81c-15.16,5.07-15.41,15.21-15.16,20.28c0.84,16.89,13.06,24.07,25.69,24.07
		c-6.74,8.029-7.16,11.83-12.21,16.48c-15.59,0-32.86-18.17-31.17-40.551c0-14.79,9.69-34.22,30.33-38.02H337.4z M655,0.42
		L540.43,114.891C518.1,95.04,493.25,70.96,468.82,48.15l0.42,110.25c-5.05-5.07-12.21-12.25-17.69-17.32l-0.42-123.34h16.01
		c6.73,7.18,48.86,49,72.45,70.96c9.26-8.02,62.34-60.82,92.66-88.7L655,0.42z"/>
	<path fill="#064383" d="M302.02,119.109c0,22.811-17.7,40.551-35.39,40.551H157.54v-17.74h106.57
		c11.37-0.42,21.06-10.98,21.06-24.07c0-9.72-9.27-21.97-19.38-21.97h-68.24c4.22-6.33,7.16-11.399,10.95-16.47h35.81
		C267.05,79.41,302.02,76.88,302.02,119.109z M630.57,34.64l0.42,125.45h-18.95V53.22L630.57,34.64z M448.6,55.76
		c-1.68,27.45-16.43,38.01-35.38,40.551c10.11,10.56,39.59,43.08,58.55,62.93c-10.949,0-14.739,0-23.17-0.42
		c-12.21-11.83-46.75-48.58-58.97-61.67c-11.37-0.42-42.12,0.42-61.92,0v61.25h-18.95V39.7h18.53v38.86h85.93
		c15.58-2.53,17.69-17.74,17.69-22.8c0-5.07-3.79-20.28-20.221-19.86l-68.239-0.42V17.74h71.189
		C424.59,17.74,447.76,25.34,448.6,55.76z"/>
</g>
<g id="Layer_1_1_">
</g>
</svg>
